<svg xmlns="http://www.w3.org/2000/svg" width="21" height="21" fill="none" viewBox="0 0 21 21">
  <mask id="a" width="21" height="21" x="0" y="0" maskUnits="userSpaceOnUse" style="mask-type:alpha">
    <path fill="#000" d="M7.547 5.168a4.3 4.3 0 0 1 4.3 4.3v11.129c-.452.06-.912.093-1.38.093-.693 0-1.371-.07-2.028-.199V9.47c0-.493-.4-.893-.892-.893H.244a10.183 10.183 0 0 1 1.268-3.408h6.035Zm10.977 11.719a10.4 10.4 0 0 1-5.003 3.348v-3.348h5.003Zm-13.378-6.55c.96 0 1.737.777 1.737 1.736v7.986a10.398 10.398 0 0 1-3.407-2.055v-4.259H.649a10.213 10.213 0 0 1-.567-3.36l.001-.048h5.063Zm15.545 1.851c-.14.79-.369 1.549-.68 2.265h-6.49v-3.408h7.17v1.143Zm-1.248-6.985a10.182 10.182 0 0 1 1.248 3.377v.031H13.46a5.988 5.988 0 0 0-1.717-3.408h7.701ZM10.468.081c2.694 0 5.15 1.019 6.995 2.689H3.472A10.394 10.394 0 0 1 10.468.08Z"/>
  </mask>
  <g mask="url(#a)">
    <path fill="#030712" d="M0 0h23.059v21.332H0z"/>
    <path fill="#15803D" d="m-1.625 8.625 2.794-5.256-.399-.2 21.49.333 2.063 4.857-11.444.465-.332 12.841L7.69 21.6 6.825 9.357l-8.45-.732Z"/>
  </g>
  <style>
    @media (prefers-color-scheme: dark) {
        path { fill: #FFF; }
    }
  </style>
</svg>
