<svg xmlns="http://www.w3.org/2000/svg" width="175" height="40" fill="currentColor" viewBox="0 0 175 40">
  <path d="M47.093 18.877c1.627-.409 3.458-1.566 3.458-3.54 0-2.928-2.78-2.928-4.204-2.928h-5.83c.271.136.407.885.407 1.906 0 1.225-.068 2.928-.271 5.242l-.068.954c-.271 4.017-.407 6.332-1.085 6.876h5.22c4 0 6.441-2.042 6.441-4.698.068-2.45-1.695-3.54-4.068-3.812Zm-3.457-1.498c.067-1.09.203-2.179.339-3.2.339-.068.745-.068 1.017-.068 1.762 0 2.576.749 2.576 1.77 0 1.77-1.763 2.45-3.661 2.45h-.34l.069-.952Zm.949 8.102c-1.017 0-1.424-.273-1.424-.409 0-.953.068-1.702.136-2.723l.135-2.179h1.085c1.966 0 3.525.613 3.525 2.587 0 1.77-1.356 2.724-3.457 2.724Zm87.593-6.809c-1.492-.953-2.915-1.77-2.915-2.86 0-1.36 1.152-1.906 2.44-1.906 1.492 0 2.78.885 3.39 1.975l.407-3.54c-1.017 0-2.034-.273-3.661-.273-2.78 0-5.492 1.09-5.492 4.29 0 2.178 1.56 3.336 4 4.834 1.153.68 2.102 1.43 2.102 2.519 0 1.361-1.152 2.11-2.712 2.11-2.034 0-3.39-1.157-4.135-2.723l-.271 3.745c1.559.612 2.915.817 4.203.817 3.186 0 5.898-1.77 5.898-4.562 0-2.179-1.627-3.404-3.254-4.426Zm-10.644.613c.746-1.225 4.203-6.74 5.017-6.877h-4c.135.137.203.545.203.886 0 .476-.203.885-.407 1.293-.949 1.498-1.627 2.656-2.711 4.221-.407-1.225-1.153-2.86-2.102-5.106-.61-1.362-.881-1.498-1.898-1.498-.543 0-1.763.068-2.644.136.542.273 1.355 1.566 2.101 2.928 1.153 2.179 1.899 4.017 2.441 5.924.068 1.293-.271 5.514-.949 6.195h4.068c-.339-.34-.407-1.225-.407-1.906 0-1.634.135-3.132.339-4.221.135-.613.61-1.362.949-1.975Zm-43.865 5.583-3.05-4.085c-.204-.272-.543-.749-.746-.885 1.966-.613 3.593-1.907 3.593-4.29 0-2.927-2.508-3.2-4.271-3.2h-5.56c.272.137.407.818.407 1.907 0 1.225-.067 2.928-.27 5.242l-.069.954c-.339 4.63-.542 6.4-1.152 6.876h4.068c-.272-.136-.407-.885-.407-1.906 0-.885.068-2.11.135-3.677l.068-1.09h.068c.542 0 .746.341 1.085.75l4.203 5.855c.34.477.61.681 1.763.681.746 0 1.898-.068 2.712-.136-.475-.34-.678-.477-2.576-2.996Zm-6.305-6.06c-.203 0-.474 0-.678-.068l.068-1.02c.136-1.771.204-2.928.34-3.541.338-.068.813-.068 1.152-.068 1.424 0 2.237.68 2.237 1.838 0 1.77-1.288 2.86-3.119 2.86Zm-8.339 1.839-.61-2.315c-.745-2.724-1.627-5.924-1.627-5.924h-3.254c.136.137.203.477.203.818 0 .34-1.017 2.587-1.966 4.63l-1.017 2.246c-1.83 3.881-3.118 6.264-4.135 7.285h3.593c-.068-.136-.068-.476-.068-.68 0-.818.746-2.247 1.017-2.928l.339-.613h1.763c1.762 0 2.847-.204 3.525-.477l.34 1.294c1.016 3.54 1.152 3.608 2.44 3.608.407 0 1.424-.068 2.305-.136-1.017-.885-1.695-2.791-2.848-6.808Zm-6.711.408 2.44-5.242 1.492 5.242h-3.932Zm26.305-.749c0-2.995 1.288-6.468 4.474-6.468 1.627 0 2.848.885 3.526 2.247l.406-3.813c-1.288 0-2.034-.272-3.66-.272-5.153 0-7.865 3.88-7.865 8.851 0 3.609 2.237 6.809 6.102 6.809 2.983 0 4.745-1.498 5.559-4.017-1.898 1.361-3.05 1.702-4.339 1.702-2.373 0-4.203-1.77-4.203-5.039Zm29.084.34-.61-2.314c-.271-1.021-1.627-5.924-1.627-5.924h-3.254c.135.137.203.477.203.818 0 .408-.949 2.519-1.966 4.63l-1.017 2.246a47.152 47.152 0 0 1-2.305 4.562c-1.152.749-1.763.817-4.203.817-.678 0-.95-.136-.95-.817 0-1.498.204-2.996.272-4.494l.068-.885c.27-4.017.474-6.468 1.084-6.808h-4.067c.27.34.338.885.406 1.906 0 1.226-.067 2.928-.27 5.242l-.069.954c-.27 4.017-.474 6.195-1.084 6.876h10.576c-.068-.136-.068-.476-.068-.68 0-.818.61-1.975 1.017-2.928l.339-.613h1.763c1.762 0 2.847-.204 3.525-.477l.339 1.294c1.017 3.54 1.153 3.609 2.441 3.609.407 0 1.491-.069 2.305-.137-1.085-.953-1.763-2.86-2.848-6.876Zm-6.711.41 2.44-5.243 1.492 5.242h-3.932Z"/>
</svg>
