<svg xmlns="http://www.w3.org/2000/svg" width="175" height="40" fill="currentColor" viewBox="0 0 175 40">
  <path d="M86.913 27.877h.83v-3.11h-2.28v.968h1.174c-.069.76-.553 1.243-1.174 1.243-.83 0-1.313-.76-1.313-2.141 0-1.451.483-2.142 1.313-2.142.552 0 .898.276 1.105.829l1.036-.277c-.276-.967-1.036-1.52-2.141-1.52-1.59 0-2.557 1.106-2.557 3.04 0 2.004.898 3.179 2.35 3.179.69 0 1.243-.208 1.588-.76l.07.69Z"/>
  <path fill-rule="evenodd" d="M89.33 27.876h1.106v-2.418h1.037l1.174 2.487h1.244l-1.382-2.764c.69-.207 1.105-.76 1.105-1.52 0-1.243-.76-1.796-2.28-1.796h-2.072v6.011h.069Zm1.175-3.385v-1.728h.968c.69 0 1.105.277 1.105.83 0 .552-.345.829-1.105.829h-.968v.069Zm4.491.414c0 2.003.967 3.109 2.556 3.109 1.59 0 2.557-1.175 2.557-3.11 0-2.003-.968-3.108-2.557-3.108-1.589-.07-2.556 1.105-2.556 3.109Zm1.175 0c0-1.382.483-2.142 1.381-2.142.899 0 1.382.691 1.382 2.142 0 1.382-.483 2.073-1.382 2.073-.898 0-1.381-.691-1.381-2.073Z" clip-rule="evenodd"/>
  <path d="M101.491 25.665c0 1.59.76 2.35 2.28 2.35 1.451 0 2.28-.76 2.28-2.143v-4.007h-1.106v3.938c0 .898-.276 1.313-1.174 1.313-.829 0-1.175-.415-1.175-1.313v-3.938h-1.174v3.8h.069Z"/>
  <path fill-rule="evenodd" d="M107.848 27.876h1.174v-2.418h1.106c1.312 0 2.003-.622 2.003-1.796 0-1.244-.691-1.797-2.142-1.797h-2.141v6.011Zm1.174-3.385v-1.728h.829c.76 0 1.175.208 1.175.83 0 .621-.346.829-1.175.829h-.829v.069ZM83.32 18.204h1.797c1.934 0 2.901-1.037 2.901-3.04 0-2.004-.967-3.04-2.832-3.04H83.32v6.08Zm1.175-.967V13.16h.622c1.243 0 1.796.622 1.796 2.004 0 1.45-.553 2.073-1.796 2.073h-.622Z" clip-rule="evenodd"/>
  <path d="M89.54 18.204h4.075v-1.037h-2.97V15.51h2.072v-.967h-2.073V13.16h2.833v-1.036H89.54v6.08Zm5.457-2.211c0 1.59.76 2.35 2.28 2.35 1.45 0 2.28-.76 2.28-2.143v-4.076H98.45v3.938c0 .898-.276 1.313-1.174 1.313-.83 0-1.175-.415-1.175-1.313v-3.938h-1.174v3.869h.069Zm7.461 2.211h1.175V13.16h1.589v-1.036h-4.353v1.036h1.589v5.044Zm3.593-1.313c.414.967 1.174 1.451 2.28 1.451 1.312 0 2.072-.69 2.072-1.796 0-.967-.483-1.382-1.52-1.797-.967-.414-1.589-.483-1.589-1.105 0-.415.277-.622.829-.622.553 0 .83.277 1.106.76l1.036-.345c-.345-.898-1.036-1.313-2.072-1.313-1.175 0-2.004.69-2.004 1.658 0 .553.276 1.037.691 1.313.414.276.898.414 1.451.622.622.207.898.414.898.829 0 .483-.346.76-.967.76-.553 0-.899-.277-1.244-.898l-.967.483Zm8.982-.484c-.138.553-.622.898-1.175.898-.898 0-1.243-.69-1.243-2.072 0-1.451.414-2.211 1.243-2.211.553 0 .898.276 1.037.898l1.036-.276c-.207-1.037-.967-1.59-2.073-1.59-1.589 0-2.487 1.106-2.487 3.179 0 2.072.829 3.109 2.418 3.109 1.175 0 1.935-.553 2.28-1.658l-1.036-.277Zm2.348 1.797h1.174v-2.626h2.349v2.626h1.106v-6.08h-1.106v2.418h-2.349v-2.418h-1.174v6.08Zm6.494 0h4.076v-1.037h-2.971V15.51h2.073v-.967h-2.073V13.16h2.833v-1.036h-3.938v6.08Z"/>
  <path fill-rule="evenodd" d="M132.236 18.204h2.142c1.52 0 2.28-.553 2.28-1.727 0-.76-.345-1.244-1.036-1.451.622-.277.898-.691.898-1.313 0-1.036-.691-1.589-2.073-1.589h-2.211v6.08Zm1.106-.898v-1.797h.967c.76 0 1.175.277 1.175.899 0 .621-.346.898-1.175.898h-.967Zm0-2.695v-1.52h.898c.76 0 1.105.208 1.105.76 0 .484-.345.76-1.036.76h-.967Zm5.872-3.178h.898v-1.037h-.898v1.037Zm1.382 0h.898v-1.037h-.898v1.037Zm-2.764 3.73c0 2.004.967 3.11 2.556 3.11s2.557-1.175 2.557-3.11c0-2.003-.968-3.108-2.557-3.108s-2.556 1.174-2.556 3.109Zm1.175 0c0-1.381.483-2.141 1.381-2.141.899 0 1.382.69 1.382 2.142 0 1.381-.483 2.072-1.382 2.072-.898.07-1.381-.622-1.381-2.072Zm5.32 3.04h1.105v-2.418h1.037l1.174 2.487h1.244l-1.382-2.763c.691-.208 1.105-.76 1.105-1.52 0-1.244-.76-1.797-2.28-1.797h-2.072v6.011h.069Zm1.105-3.385V13.09h.968c.69 0 1.105.276 1.105.829 0 .552-.345.829-1.105.829h-.968v.069Z" clip-rule="evenodd"/>
  <path d="M149.854 16.891c.414.967 1.174 1.451 2.279 1.451 1.313 0 2.073-.69 2.073-1.796 0-.967-.483-1.382-1.52-1.797-.967-.414-1.589-.483-1.589-1.105 0-.415.276-.622.829-.622.553 0 .829.277 1.106.76l1.036-.345c-.345-.898-1.036-1.313-2.073-1.313-1.174 0-2.003.69-2.003 1.658 0 .553.276 1.037.691 1.313.414.276.898.414 1.45.622.622.207.899.414.899.829 0 .483-.346.76-.968.76-.552 0-.898-.277-1.243-.898l-.967.483Zm5.802 1.313h4.077v-1.037h-2.902V15.51h2.072v-.967h-2.072V13.16h2.832v-1.036h-4.007v6.08ZM21.624 23.11l-6.356 3.661v3.87l9.81-5.597-3.454-1.935Zm10.225 1.381-2.902-1.658h-6.84l6.357 3.593 3.385-1.935Zm10.363-5.321-13.196 7.532h6.84l9.672-5.528-3.316-2.003Zm10.226 1.383-2.971-1.659h-6.84l6.356 3.662 3.455-2.003Zm20.38-7.186-16.512 9.465h-6.77L72.817 9.498v3.869Zm5.736-6.494h-1.036v26.254h1.036V6.873Z"/>
</svg>
