<svg xmlns="http://www.w3.org/2000/svg" width="195" height="43" fill="currentColor" viewBox="0 0 195 43">
  <g clip-path="url(#a)">
    <path d="M59 14.221a6.68 6.68 0 0 1 3.474.943 6.966 6.966 0 0 1 2.525 2.563 6.96 6.96 0 0 1 .928 3.526 7.22 7.22 0 0 1-.346 2.222 6.626 6.626 0 0 1-.991 1.938 7.655 7.655 0 0 1-1.496 1.519 6.46 6.46 0 0 1-1.91 1.006 6.899 6.899 0 0 1-2.188.352h-2.93v-2.432h2.93c.486 0 .962-.078 1.424-.23a4.195 4.195 0 0 0 1.245-.664c.37-.288.698-.62.982-.996.284-.376.5-.796.654-1.265.149-.469.226-.952.226-1.445 0-1.275-.443-2.359-1.328-3.257-.885-.899-1.953-1.348-3.208-1.348h-2.93v-2.432h2.94Zm20.86 2.432h-9.755v-2.432h9.754v2.432Zm-1.646 5.826H70.1v-2.452h8.114v2.452Zm1.645 5.806h-9.754v-2.432h9.754v2.432Zm6.569-2.432h7.364v2.432h-9.755V14.22h2.396v11.632h-.005Zm17.241-11.632c1.121 0 2.078.4 2.872 1.206.793.806 1.188 1.773 1.188 2.916 0 1.142-.395 2.11-1.188 2.915-.794.806-1.746 1.206-2.872 1.206h-3.304v5.826h-2.396v-8.258h5.7c.462 0 .856-.166 1.179-.493.322-.327.485-.728.485-1.196 0-.47-.163-.87-.485-1.197a1.598 1.598 0 0 0-1.179-.493h-5.7v-2.432h5.7Zm16.424 0h2.395v14.064h-2.395v-5.806h-5.796v5.806h-2.396V14.22h2.396v5.806h5.796V14.22Zm8.965 14.064h-2.396V14.22h2.396v14.064Zm14.68-2.432h7.364v2.432h-9.755V14.22h2.396v11.632h-.005Zm18.547-11.632 5.046 14.064h-2.554l-3.781-10.509-3.761 10.509h-2.554l5.046-14.064h2.558Zm17.458 6.611c.515.391.923.874 1.227 1.456a4.03 4.03 0 0 1 .456 1.88c0 1.137-.399 2.11-1.197 2.915-.799.806-1.761 1.206-2.882 1.206h-5.859v-2.432h5.859c.463 0 .857-.166 1.179-.503a1.67 1.67 0 0 0 .485-1.196 1.64 1.64 0 0 0-.485-1.187 1.595 1.595 0 0 0-1.179-.493h-5.859v-2.451h5.046c.463 0 .857-.166 1.179-.494.322-.327.485-.727.485-1.196s-.163-.87-.494-1.196a1.617 1.617 0 0 0-1.17-.493h-5.046v-2.432h5.046c1.121 0 2.078.4 2.872 1.206.793.806 1.189 1.772 1.189 2.915 0 .913-.284 1.743-.852 2.49v.005Zm11.138-.805c1.12 0 2.078.405 2.872 1.216.793.81 1.188 1.787 1.188 2.925 0 1.137-.395 2.11-1.188 2.915-.794.806-1.746 1.206-2.872 1.206h-5.7v-2.432h5.7a1.6 1.6 0 0 0 1.179-.493c.322-.327.485-.728.485-1.197 0-.468-.163-.869-.485-1.196a1.6 1.6 0 0 0-1.179-.493h-1.645c-1.12 0-2.078-.405-2.872-1.216-.793-.81-1.188-1.787-1.188-2.925s.395-2.11 1.188-2.915c.794-.806 1.746-1.206 2.872-1.206h4.887v2.432h-4.887c-.448 0-.836.166-1.169.502a1.64 1.64 0 0 0-.495 1.197c0 .464.163.86.495 1.186.333.328.717.494 1.169.494h1.645ZM27.217 4.313c-.471.215-.952.473-1.448.79-.226.138-.437.28-.644.42-.322-.639-1.712-3.08-4.07-3.08h-.014c-.683.044-3.785.468-4.704 4.658l-.01.034c-.105.435-.182.899-.264 1.387-.226 1.343-.481 2.862-1.472 4.302-1.323 1.953-3.377 2.813-4.67 3.174-.188-.283-.376-.552-.558-.815a18.63 18.63 0 0 1-.746-1.123l-.02-.035c-.043-.068-.081-.136-.12-.205.169-.024 2.795-.41 4.137-2.392.688-.997.88-2.125 1.077-3.316.087-.508.174-1.03.303-1.553C15.01 1.94 18.373.143 20.94.001h.116c3.598 0 5.57 3.179 6.156 4.312h.005ZM6.674 17.12c.688.987 1.342 1.92 1.549 3.12.428 2.37-1.155 4.523-1.26 4.664.076.02.148.04.23.059l.034.01c.414.107.846.18 1.303.258.313.054.64.113.972.176.659-1.186 1.51-3.267 1.087-5.596-.298-1.734-1.178-2.989-1.953-4.097a17.574 17.574 0 0 1-.774-1.172l-.02-.03c-2.27-3.618-.37-6.152.082-6.67 1.665-1.704 4.363-.971 5.036-.752.048-.249.101-.503.164-.757.125-.576.288-1.108.471-1.596-1.212-.381-4.858-1.221-7.407 1.42l-.034.04c-1.722 1.943-2.842 5.625-.35 9.615a22 22 0 0 0 .87 1.313v-.005Zm5.955 10.504c-1.42-1.01-2.915-1.27-4.238-1.494a19.11 19.11 0 0 1-1.366-.269l-.034-.01c-4.127-.932-4.545-4.082-4.589-4.775-.01-2.403 2.405-3.819 3.036-4.146-.14-.21-.28-.425-.414-.654a11.86 11.86 0 0 1-.78-1.47c-1.115.605-4.28 2.627-4.242 6.323v.05c.14 2.607 1.91 6.02 6.455 7.05.515.132 1.03.22 1.53.308 1.174.205 2.285.396 3.266 1.094 1.953 1.362 2.333 4.029 2.357 4.2.067-.04.134-.078.202-.122l.034-.02c.365-.225.726-.478 1.106-.752.26-.186.529-.376.803-.566-.36-1.314-1.207-3.4-3.127-4.742v-.005Zm6.888 4.063c-1.708.303-2.944 1.196-4.036 1.982-.4.289-.774.557-1.155.787l-.028.02c-3.565 2.304-6.061.375-6.57-.084-1.68-1.69-.958-4.429-.742-5.113a14.62 14.62 0 0 1-.745-.166 11.092 11.092 0 0 1-1.573-.478c-.375 1.23-1.203 4.932 1.4 7.52l.038.034a7.192 7.192 0 0 0 4.81 1.831c1.434 0 3.02-.415 4.666-1.474.452-.279.88-.586 1.294-.884.971-.698 1.89-1.363 3.073-1.573 2.333-.434 4.454 1.172 4.594 1.28l.058-.235.01-.034c.105-.425.177-.864.254-1.338.053-.317.106-.64.173-.971-1.169-.67-3.218-1.534-5.512-1.104h-.01Zm13.689-3.277-.02-.034c-.216-.371-.476-.737-.745-1.123-.183-.264-.37-.532-.558-.816-1.294.367-3.348 1.226-4.67 3.175-.996 1.44-1.251 2.959-1.472 4.302a20.29 20.29 0 0 1-.265 1.386l-.01.035c-.918 4.19-4.02 4.614-4.704 4.658-2.361.015-3.761-2.446-4.084-3.081-.206.142-.423.283-.644.42a11.06 11.06 0 0 1-1.448.786c.587 1.128 2.56 4.317 6.162 4.317h.115c2.569-.142 5.926-1.939 6.946-6.553.13-.523.216-1.046.303-1.553.202-1.192.39-2.32 1.077-3.316 1.347-1.983 3.969-2.368 4.137-2.393a4.937 4.937 0 0 0-.12-.205v-.005Zm2.8-1.787a22.035 22.035 0 0 0-.871-1.314c-.688-.986-1.343-1.919-1.55-3.12-.432-2.368 1.155-4.522 1.26-4.663-.076-.02-.148-.04-.23-.059l-.034-.01c-.413-.107-.846-.18-1.303-.258a59.44 59.44 0 0 1-.972-.176c-.659 1.186-1.51 3.267-1.087 5.596.298 1.733 1.179 2.988 1.953 4.097.284.405.548.786.774 1.172l.02.029c2.27 3.619.37 6.153-.082 6.67-1.664 1.705-4.363.972-5.036.752-.048.25-.101.503-.164.757a11.538 11.538 0 0 1-.471 1.597 9.529 9.529 0 0 0 2.78.435c1.482 0 3.218-.396 4.622-1.856l.034-.039c1.722-1.943 2.843-5.625.351-9.615l.005.005Zm5.795-5.376c-.135-2.608-1.91-6.021-6.45-7.052-.515-.131-1.03-.22-1.53-.307-1.173-.205-2.284-.396-3.266-1.094-1.952-1.363-2.332-4.029-2.357-4.2-.067.04-.134.078-.202.122l-.028.02c-.37.225-.732.483-1.111.762a28.58 28.58 0 0 1-.799.561c.36 1.314 1.207 3.399 3.127 4.742 1.419 1.01 2.915 1.27 4.237 1.494.481.083.933.161 1.366.269l.034.01c4.127.932 4.545 4.082 4.589 4.775.01 2.403-2.405 3.819-3.036 4.146.14.21.28.425.414.654.313.503.568.992.78 1.47 1.12-.6 4.285-2.627 4.247-6.319v-.048l-.015-.005Zm-7.72-13.214c1.679 1.69.957 4.429.74 5.112.246.05.496.103.747.166.567.127 1.091.293 1.572.48.376-1.232 1.203-4.933-1.4-7.521l-.038-.034c-1.914-1.748-5.541-2.886-9.47-.357-.453.279-.881.586-1.295.884-.971.698-1.89 1.363-3.073 1.573-2.328.434-4.454-1.172-4.594-1.28l-.058.235-.01.034c-.105.425-.177.864-.254 1.338-.053.317-.106.64-.173.971 1.169.67 3.218 1.539 5.512 1.104 1.703-.303 2.944-1.196 4.036-1.982.399-.289.774-.557 1.154-.787l.029-.02c3.564-2.304 6.06-.375 6.57.084h.005Z"/>
  </g>
  <defs>
    <clipPath id="a">
      <path d="M0 0h194.935v42.435H0z"/>
    </clipPath>
  </defs>
</svg>
