<svg xmlns="http://www.w3.org/2000/svg" width="175" height="40" fill="currentColor" viewBox="0 0 175 40">
  <path d="M69.212 8.754c-2.558 0-4.137 1.935-4.137 5.234 0 3.272 1.579 5.235 4.137 5.235s4.137-1.936 4.137-5.235c0-3.299-1.552-5.234-4.137-5.234Zm0 9.87c-.98 0-1.279-1.064-1.279-4.663s.3-4.662 1.28-4.662c.979 0 1.278 1.09 1.278 4.69 0 3.57-.3 4.634-1.279 4.634Zm18.86 4.934c-1.088 0-1.878.409-2.34 1.118v-3.6h-2.75v6.68c0 3.627-2.067 5.344-3.945 5.344-1.388 0-1.96-.954-1.96-4.226 0-3.271.354-4.743 1.47-4.743.735 0 1.36.708 1.987 2.344h.68V24.05c-.817-.328-1.823-.491-2.613-.491-2.803 0-4.381 2.018-4.381 5.316 0 3.272 1.578 5.126 4.245 5.126 2.205 0 3.783-1.172 4.518-3.163v2.918h2.749V26.34c0-1.145.626-1.718 1.279-1.718.626 0 .843.518.843 1.309v7.852h2.75v-7.334c0-2.045-1.008-2.89-2.532-2.89ZM75.036 6.273v12.705h2.749V6.273h-2.749Zm9.906 0v3.462c-.244-.6-.843-.981-1.796-.981-2.15 0-3.592 1.935-3.592 5.18 0 3.326 1.279 5.262 3.483 5.262 1.034 0 1.742-.491 2.069-1.5v1.254h2.558V6.273h-2.722Zm-1.36 12.132c-.871 0-1.17-.872-1.17-4.499 0-3.408.299-4.416 1.224-4.416 1.007 0 1.36 1.2 1.36 4.416 0 3.245-.462 4.5-1.414 4.5ZM99.53 8.754c-1.225 0-2.123.654-2.504 1.554-.381-1.036-1.143-1.554-2.232-1.554-1.17 0-2.014.518-2.422 1.363V8.999h-2.558v9.979h2.721v-7.443c0-1.146.545-1.718 1.225-1.718.572 0 .816.463.816 1.254v7.907h2.75v-7.443c0-1.146.544-1.718 1.224-1.718.572 0 .816.463.816 1.254v7.907h2.749v-7.334c0-2.045-1.034-2.89-2.585-2.89ZM97.27 27.92l-1.578-.954c-1.061-.627-1.442-1.009-1.442-1.663 0-.736.517-1.2 1.388-1.2 1.034 0 1.796.682 2.259 2.345h.68v-2.563c-.87-.19-1.85-.354-2.721-.354-2.205 0-3.538 1.09-3.538 2.862 0 1.227.68 2.072 2.068 2.918l1.306.79c1.089.655 1.47 1.118 1.47 1.854 0 .955-.599 1.445-1.633 1.445-1.279 0-2.014-.818-2.504-2.617h-.68v2.808c1.007.273 2.068.382 2.94.382 2.503 0 3.945-1.173 3.945-3.136-.027-1.335-.68-2.153-1.96-2.917Zm10.48-19.166c-1.035 0-2.259.19-3.402.545v2.345h.68c.572-1.473 1.334-2.29 2.422-2.29.681 0 .953.327.953 1.09v1.281c0 .627-.163.818-.871 1.064l-.735.245c-2.177.736-3.157 1.69-3.157 3.408 0 1.827 1.089 2.781 2.667 2.781 1.116 0 2.069-.49 2.368-1.445v1.2h2.504v-7.253c-.027-1.963-1.198-2.971-3.429-2.971Zm.653 7.552c0 1.308-.436 1.908-1.116 1.908-.653 0-.871-.518-.871-1.854v-.272c0-1.554.327-2.182 1.225-2.645l.762-.382v3.245Zm9.906-7.552c-1.197 0-2.068.518-2.504 1.363V8.999h-2.585v9.979h2.749v-7.47c0-1.146.626-1.718 1.279-1.718.626 0 .843.518.843 1.308v7.852h2.749v-7.306c0-2.045-1.007-2.89-2.531-2.89ZM63.905 29.502c0 2.562-1.85 4.28-4.817 4.28h-4.354v-4.553h.653c.599 2.699 1.714 3.899 3.592 3.899 1.524 0 2.34-.818 2.34-2.154 0-1.418-.87-2.072-2.15-2.808l-1.932-1.146c-1.633-.954-2.558-2.126-2.558-3.762 0-1.827 1.062-2.999 2.776-3.49-2.422-.654-3.293-2.863-3.293-6.788 0-4.472 1.85-6.98 5.634-6.98h3.51v3.762h-.68c-.816-2.399-1.524-3.135-2.803-3.135-1.878 0-2.395 2.018-2.395 6.462 0 5.125.463 6.27 1.85 6.27 1.062 0 1.579-.681 1.579-2.29v-1.963c0-1.2-.381-1.636-1.633-1.826v-.628h4.191v10.715h-.626c-.952-2.699-2.177-3.299-3.538-3.299-1.333 0-2.15.627-2.15 1.854 0 1.145.68 1.69 1.96 2.454l2.095 1.254c1.66 1.036 2.75 1.99 2.75 3.872Zm5.28-5.944c-1.034 0-2.259.19-3.402.545v2.345h.68c.572-1.472 1.334-2.29 2.422-2.29.68 0 .953.327.953 1.09v1.255c0 .627-.163.817-.87 1.063l-.736.245c-2.177.736-3.157 1.69-3.157 3.408 0 1.827 1.089 2.781 2.667 2.781 1.116 0 2.069-.49 2.368-1.445v1.2h2.477v-7.198c0-1.99-1.198-3-3.402-3Zm.653 7.552c0 1.309-.435 1.909-1.116 1.909-.653 0-.87-.518-.87-1.854v-.273c0-1.554.326-2.181 1.224-2.645l.762-.381v3.244Z"/>
</svg>
