<svg xmlns="http://www.w3.org/2000/svg" width="175" height="40" fill="currentColor" viewBox="0 0 175 40">
  <path d="m43.808 31.26-.57-.4c-.247-2.857-1.143-4.583-1.625-5.48.512-.331 1.358-1.101 1.358-2.203 0-1.102-.905-1.687-.905-3.052 0-.75.256-1.384.679-1.872-.276-.39-.6-.594-1.073-.594-.532 0-1.014.439-1.014 1.101 0 .39.167.82.541 1.005-.265.36-.945.4-1.319-.147h-.01c0 1.307 1.398 2.213 1.398 3.598 0 .897-.718 1.764-1.762 1.764-.778 0-1.506-.36-1.88-1.072.846.214 1.457-.117 1.457-.858 0-1.355-2.274-2.671-2.274-4.972 0-1.804 1.398-2.808 3.002-2.808 1.457 0 2.757.663 3.731 2.34.502-.37 1.113-.585 1.733-.702 1.664-.322 3.712-.03 5.277-.692.699-.293 1.28-.82 1.28-1.414 0-.282-.168-.458-.404-.458-.118 0-.295.059-.403.312-.306-.263-.404-.546-.404-.819 0-.468.148-.682.315-.907-.158-.4-.64-.497-.975-.097-.403-.741-.157-1.765.896-2.077v-.01c-1.24-.204-1.565-.965-1.427-1.803.118.097.246.166.384.166.206 0 .324-.166.324-.4 0-.244-.128-.634-.767-1.063.56-.838 1.535-.965 2.028-.653l.01-.01c-.247-.341-.375-.936.02-1.53a.824.824 0 0 0 .669.321c1.033 0 1.073-1.12 1.86-1.238-.049.351.05.839.483.839.57 0 .836-.858.984-1.385.246.137.433.38.394.829h.01l.344-.692c.286.243.345.643.246 1.004-.02.097-.059.166-.059.214 0 .273.827.478.827 1.083 0 .097-.03.214-.078.331l1.88 2.35a.688.688 0 0 1 .157.438c0 .488-.433 1.005-1.053 1.005-.62 0-.827-.332-.866-.488l-1.635-.79c-.098.156-.206.41-.206.702 0 1.784 2.55 1.833 3.16 4.163l2.52-.828c1.802 1.735 3.702 3.422 4.883 4.114l.748.936h-2.254v-.654l-.62-.165c-.946-1.472-2.235-2.282-2.924-2.486-.837.507-1.467 1.033-2.205 1.842 1.2-.097 2.54.02 3.662.234l-.59 4.992-.483 1.277-1.27 1.073V22.27h.679l-.187-.702c.551-1.462.63-2.437.63-2.963 0-.166-.01-.322-.059-.371-.05-.049-.246 0-.413.049-.453.127-1.201.477-2.156 1.238-.867.702-1.33 1.014-2.501.887-1.32 1.355-4.105 1.999-6.547 1.97-.187 1.959-2.382 3.09-2.382 4.026 0 .331.325.877 1.024 1.92.787 1.16 1.526 2.282 2.45 2.643l.788.945h-2.264l-.02-.672-.64-.351c-.738-1.356-1.89-2.837-3.465-4.232.384-.76.59-1.54.6-2.271-.708 1.062-1.752 1.072-1.939 1.881-.069.303-.03.888.138 1.648.246 1.15.463 2.515 1.536 3.042l.748.965h-2.225v-.663Z"/>
  <path d="M39.909 15.904c.473 0 1.132.107 1.595.536-1.093-.497-2.727-.166-2.845 1.14-.187-.204-.246-.448-.266-.662-.404.185-.709.74-.788 1.345-.324-1.433.847-2.36 2.304-2.36Zm6.064 1.55c1.517-.185 3.584-.02 5.277-.848.788-.39 1.595-1.044 1.595-1.92 0-1.064-1.32-2.107-1.32-4.369 0-1.472.66-3.168 2.403-4.094-1.103.945-1.634 2.028-1.634 3.353 0 1.326.522 2.72 2.294 3.413 1.25.487 2.421.507 2.923 1.54-.443-.35-1.014-.468-1.407-.468-2.55 0-3.505 4.719-6.498 6.055.63-1.638-1.28-2.165-3.042-2.126-1.437.03-3.642.42-3.662 2.672-.414-1.502.462-2.886 3.071-3.208ZM57.758 9.81c0-.136.078-.36.078-.546 0-.097-.02-.224-.147-.419a8.422 8.422 0 0 0-.857-1.092c-.443-.458-.827-.594-1.417-.546.482-.263.6-.516.6-.79 0-.243-.138-.497-.354-.74.315.058 1.151.4 1.151.848 0 .097-.049.175-.137.273l2.018 2.496c-.07.107-.226.058-.364.058-.089 0-.138.059-.138.146 0 .166.138.38.216.498a.596.596 0 0 1-.305.087c-.167-.01-.344-.068-.344-.273ZM70.94 21.15v-9.321c0-.517-.128-1.121-.305-1.862h3.032c-.177.74-.305 1.335-.305 1.862v9.057h3.318c1.112 0 1.81-.049 2.55-.253l-.749 2.378h-7.846c.177-.75.305-1.345.305-1.862Zm9.787 0v-9.321c0-.517-.128-1.121-.305-1.862h3.032c-.177.74-.305 1.335-.305 1.862v9.057h3.318c1.112 0 1.811-.049 2.55-.253l-.749 2.378h-7.846c.177-.75.305-1.345.305-1.862Zm8.613-4.671c0-3.724 2.756-6.688 6.724-6.688 3.968 0 6.724 2.954 6.724 6.688 0 3.734-2.756 6.688-6.724 6.688-3.968 0-6.724-2.954-6.724-6.688Zm11.006 0c0-2.69-1.614-4.543-4.282-4.543s-4.283 1.862-4.283 4.543 1.615 4.543 4.283 4.543 4.282-1.852 4.282-4.543Zm7.266 1.697a18.149 18.149 0 0 1-4.657-8.219h2.786a6.24 6.24 0 0 0 .374 1.755c.631 1.794 1.596 3.295 2.698 4.563 1.132-1.22 2.185-2.77 2.815-4.563a6.49 6.49 0 0 0 .374-1.755h2.698a18.21 18.21 0 0 1-4.656 8.219v4.826h-2.422l-.01-4.826Zm9.047 2.974v-9.321c0-.517-.128-1.121-.305-1.862h4.45c4.223 0 6.891 2.671 6.891 6.522 0 3.851-2.668 6.522-6.891 6.522h-4.45c.187-.75.305-1.345.305-1.862Zm8.584-4.67c0-2.828-1.624-4.388-4.607-4.388h-1.555v8.784h1.555c2.983 0 4.607-1.56 4.607-4.397Zm4.106 5.79-.04-2.613c1.674 1.073 2.787 1.56 4.096 1.56 1.476 0 2.432-.575 2.432-1.618 0-.692-.404-1.229-1.733-1.765l-2.116-.838c-1.95-.77-2.826-1.843-2.826-3.51 0-2.262 1.782-3.685 4.519-3.685 1.437 0 2.786.448 3.563.819v2.505c-1.476-.975-2.569-1.365-3.682-1.365-1.378 0-2.067.537-2.067 1.365 0 .82.433 1.238 1.477 1.668l2.658 1.072c1.545.614 2.56 1.735 2.56 3.441 0 2.233-1.763 3.88-4.893 3.88-1.644-.019-3.072-.536-3.948-.916ZM70.95 31.113v-4.095c0-.224-.059-.487-.138-.819h2.294c1.103 0 1.772.566 1.772 1.443 0 .536-.285 1.024-.807 1.306.63.225.994.722.994 1.336 0 .975-.669 1.638-1.949 1.638h-2.294c.08-.312.128-.575.128-.81Zm2.019-2.506c.57 0 .846-.302.846-.77 0-.458-.315-.731-.817-.731h-.984v1.501h.955Zm1.033 1.638c0-.497-.364-.78-.915-.78h-1.073v1.56h1.122c.57 0 .866-.283.866-.78Zm1.921.77 1.664-4.816h1.417l1.664 4.816c.108.322.217.585.374.917h-1.339a2.987 2.987 0 0 0-.147-.82l-.177-.555h-2.196l-.177.556a2.656 2.656 0 0 0-.148.819h-1.31c.158-.332.267-.585.375-.917Zm3.16-1.335-.807-2.486-.807 2.486h1.614Zm2.776 1.433v-4.095c0-.224-.06-.487-.138-.819h1.417l2.373 4.075v-3.266c0-.224-.06-.487-.138-.819h1.27c-.079.322-.138.585-.138.82v3.948c0 .302 0 .526.02.965h-1.23l-2.442-4.202v3.393c0 .224.059.487.138.819h-1.27c.078-.322.138-.585.138-.82Zm8.839-.029-1.614-2.126v2.165c0 .224.059.487.138.819h-1.33c.08-.322.138-.585.138-.82v-4.094c0-.224-.059-.487-.137-.819h1.329c-.08.322-.138.585-.138.819v1.823l1.555-1.784c.286-.332.384-.497.61-.858h1.33c-.335.36-.483.536-.729.829l-1.565 1.823 1.713 2.262c.226.302.384.487.689.809h-1.388a9.539 9.539 0 0 0-.6-.848Zm2.659.029v-4.095c0-.224-.06-.487-.138-.819h1.329c-.079.322-.138.585-.138.82v4.094c0 .224.06.487.138.819h-1.33c.09-.322.139-.585.139-.82Zm2.57 0v-4.095c0-.224-.06-.487-.138-.819h1.417l2.373 4.075v-3.266c0-.224-.059-.487-.138-.819h1.27c-.079.322-.138.585-.138.82v3.948c0 .302 0 .526.02.965h-1.22L96.93 27.72v3.393c0 .224.059.487.138.819h-1.27c.069-.322.128-.585.128-.82Zm5.749-1.999c0-1.677 1.211-2.983 3.15-2.983.709 0 1.319.185 1.782.429v1.121c-.689-.458-1.24-.624-1.802-.624-1.299 0-2.047.829-2.047 2.018 0 1.18.709 1.999 1.9 1.999.826 0 1.447-.39 1.545-1.355h-.758c-.492 0-.758 0-1.093.02l.306-.898h2.579v.302c0 2.447-1.615 2.867-2.629 2.867-1.782-.01-2.933-1.258-2.933-2.896Zm7.896 0c0-1.677 1.211-2.983 3.151-2.983a3.84 3.84 0 0 1 1.782.429v1.121c-.69-.458-1.241-.624-1.802-.624-1.299 0-2.048.829-2.048 2.018 0 1.18.709 1.999 1.9 1.999.828 0 1.447-.39 1.546-1.355h-.758c-.493 0-.748 0-1.093.02l.305-.898h2.58v.302c0 2.447-1.615 2.867-2.629 2.867-1.782-.01-2.934-1.258-2.934-2.896Zm6.695 1.999v-4.095c0-.224-.059-.487-.138-.819h2.185c1.28 0 1.94.673 1.94 1.658 0 .828-.453 1.413-1.349 1.589l1.28 1.677a7.1 7.1 0 0 0 .708.809h-1.387c-.217-.351-.345-.507-.601-.848l-1.162-1.57h-.423v1.609c0 .224.059.487.138.819h-1.329c.088-.332.138-.595.138-.83Zm2.057-2.457c.571 0 .867-.283.867-.76 0-.478-.296-.76-.867-.76h-.994v1.52h.994Zm2.766.409c0-1.638 1.211-2.934 2.953-2.934 1.743 0 2.954 1.296 2.954 2.934 0 1.638-1.211 2.935-2.954 2.935-1.742 0-2.953-1.297-2.953-2.935Zm4.834 0c0-1.18-.709-1.998-1.881-1.998-1.172 0-1.88.819-1.88 1.998 0 1.18.708 1.999 1.88 1.999s1.881-.819 1.881-1.999Zm2.136.878v-2.925c0-.224-.059-.487-.138-.819h1.329c-.079.322-.138.585-.138.82v2.817c0 .848.473 1.218 1.24 1.218.768 0 1.241-.37 1.241-1.218v-2.818c0-.224-.059-.487-.138-.819h1.309c-.079.322-.138.585-.138.82v2.924c0 1.375-.886 2.067-2.293 2.067-1.389-.01-2.274-.692-2.274-2.067Zm5.996 1.17v-4.095c0-.224-.059-.487-.138-.819h2.186c1.279 0 1.939.673 1.939 1.736 0 1.062-.66 1.735-1.939 1.735h-.995v1.443c0 .224.059.487.138.819h-1.329c.079-.322.138-.585.138-.82Zm2.057-2.35c.571 0 .867-.282.867-.809 0-.526-.296-.81-.867-.81h-.994v1.62h.994Z"/>
</svg>
