<svg xmlns="http://www.w3.org/2000/svg" width="126" height="22" fill="none" viewBox="0 0 126 22">
  <mask id="a" width="21" height="22" x="0" y="0" maskUnits="userSpaceOnUse" style="mask-type:alpha">
    <path fill="#000" d="M7.546 5.782a4.3 4.3 0 0 1 4.3 4.301v11.128c-.451.06-.91.094-1.378.094-.695 0-1.373-.07-2.03-.2V10.083c0-.493-.4-.892-.892-.893h-7.3a10.182 10.182 0 0 1 1.267-3.408h6.033Zm10.978 11.719a10.4 10.4 0 0 1-5.003 3.35V17.5h5.003Zm-13.378-6.55c.958 0 1.736.778 1.736 1.736v7.986a10.4 10.4 0 0 1-3.407-2.056V14.36H.649A10.214 10.214 0 0 1 .082 11l.001-.049h5.063Zm15.546 1.847c-.14.791-.369 1.551-.68 2.27h-6.49v-3.409h7.17v1.139Zm-1.249-6.98a10.182 10.182 0 0 1 1.25 3.383v.025h-7.234a5.987 5.987 0 0 0-1.717-3.409h7.701ZM10.468.694c2.695 0 5.15 1.019 6.996 2.689H3.472A10.393 10.393 0 0 1 10.468.695Z"/>
  </mask>
  <g mask="url(#a)">
    <path fill="#030712" d="M0 .614h23.059v21.332H0z"/>
    <path fill="#15803D" d="m-1.625 9.239 2.794-5.256-.399-.2 21.49.333 2.063 4.857-11.444.466-.332 12.84-4.857-.066L6.825 9.97l-8.45-.732Z"/>
  </g>
  <path fill="#030712" d="M33.356 17.22c-.967 0-1.709-.238-2.223-.716-.502-.49-.753-1.188-.753-2.095V4.946h2.04v9.077c0 .429.097.754.293.974.209.22.509.33.9.33.123 0 .258-.024.405-.073.147-.049.312-.14.496-.275l.753 1.562a3.96 3.96 0 0 1-.955.496 2.645 2.645 0 0 1-.956.184Zm-4.502-7.643V7.813H34.9v1.764h-6.045Zm7.214 2.848v-1.783h5.513v1.783h-5.513Zm11.707 4.796c-1.004 0-1.898-.282-2.682-.846-.784-.575-1.403-1.36-1.856-2.352-.441-1.004-.662-2.156-.662-3.454 0-1.299.22-2.444.662-3.436.453-1.005 1.066-1.789 1.837-2.352.784-.576 1.685-.864 2.701-.864 1.017 0 1.917.288 2.701.864.784.563 1.397 1.347 1.838 2.352.453.992.68 2.137.68 3.436 0 1.298-.227 2.45-.68 3.454-.441.992-1.054 1.777-1.838 2.352-.771.564-1.672.846-2.7.846Zm.019-1.93c.6 0 1.133-.202 1.598-.606.478-.405.846-.962 1.103-1.672.27-.71.404-1.525.404-2.444s-.135-1.734-.404-2.444c-.257-.723-.625-1.286-1.103-1.69a2.392 2.392 0 0 0-1.617-.607c-.612 0-1.151.202-1.617.606-.465.405-.833.962-1.102 1.673-.257.71-.386 1.53-.386 2.462 0 .918.129 1.733.386 2.444.27.71.637 1.268 1.102 1.672a2.461 2.461 0 0 0 1.636.606ZM58.189 17V4.138h2.205l6.836 9.297V4.138h2.131V17H67.23l-6.91-9.408V17h-2.13Zm17.207.22c-.895 0-1.69-.202-2.39-.606a4.569 4.569 0 0 1-1.635-1.709c-.391-.723-.587-1.555-.587-2.499 0-.943.202-1.776.606-2.499a4.387 4.387 0 0 1 1.654-1.69c.71-.417 1.519-.625 2.425-.625a4 4 0 0 1 2.224.643c.661.417 1.182 1.023 1.561 1.82.392.796.588 1.745.588 2.847h-7.221l.276-.257c0 .564.122 1.054.367 1.47.245.404.57.717.974.937.404.22.851.331 1.341.331.564 0 1.03-.122 1.397-.367.367-.258.655-.588.864-.993l1.819.772a4.63 4.63 0 0 1-.993 1.286c-.392.368-.863.65-1.415.846-.538.195-1.157.294-1.855.294Zm-2.37-5.64-.295-.258h5.182l-.276.257c0-.502-.11-.912-.33-1.23a2.033 2.033 0 0 0-.846-.736 2.245 2.245 0 0 0-1.047-.257c-.368 0-.735.086-1.103.257-.367.16-.673.405-.918.735-.245.319-.368.73-.368 1.231Zm11.314 5.64c-.968 0-1.709-.238-2.223-.716-.502-.49-.754-1.188-.754-2.095V4.946h2.04v9.077c0 .429.098.754.294.974.208.22.508.33.9.33.123 0 .258-.024.405-.073.147-.049.312-.14.496-.275l.753 1.562a3.96 3.96 0 0 1-.955.496 2.645 2.645 0 0 1-.956.184Zm-4.502-7.643V7.813h6.046v1.764h-6.046ZM95.67 17l3.068-9.187h2.077L97.691 17H95.67Zm-6.156 0 2.995-9.187h1.82L91.37 17h-1.856Zm-.184 0-3.123-9.187h2.076L91.278 17H89.33Zm6.321 0-2.94-9.187h1.82L97.524 17H95.65Zm9.735.22c-.919 0-1.74-.202-2.463-.606a4.483 4.483 0 0 1-1.672-1.709c-.404-.723-.606-1.555-.606-2.499 0-.943.196-1.776.588-2.499a4.344 4.344 0 0 1 1.672-1.69c.71-.417 1.525-.625 2.444-.625s1.733.208 2.444.625c.71.404 1.261.968 1.653 1.69.405.723.607 1.556.607 2.5 0 .943-.196 1.775-.588 2.498a4.353 4.353 0 0 1-1.654 1.71c-.71.403-1.519.606-2.425.606Zm0-1.892c.502 0 .949-.123 1.341-.368.392-.257.698-.6.919-1.029.22-.44.33-.949.33-1.525 0-.575-.116-1.078-.349-1.507a2.497 2.497 0 0 0-.918-1.028 2.424 2.424 0 0 0-1.36-.386c-.515 0-.968.122-1.36.367a2.506 2.506 0 0 0-.919 1.03c-.22.44-.33.949-.33 1.524 0 .576.11 1.084.33 1.525.233.43.545.772.937 1.03a2.61 2.61 0 0 0 1.379.367Zm7.075-3.216c0-.992.19-1.807.569-2.444.38-.637.87-1.108 1.47-1.414a4.093 4.093 0 0 1 1.911-.478v1.966c-.563 0-1.096.08-1.598.239-.49.147-.888.392-1.195.735-.306.343-.459.796-.459 1.36l-.698.036ZM111.101 17V7.813h2.058V17h-2.058Zm7.906-2.572-1.249-1.415 4.777-5.2h2.481l-6.009 6.615ZM117.041 17V4.138h2.058V17h-2.058Zm5.844 0-3.234-4.76 1.341-1.432L125.328 17h-2.443Z"/>
</svg>
