<svg xmlns="http://www.w3.org/2000/svg" width="90" height="20" fill="currentColor" viewBox="0 0 90 20">
    <path fill-rule="evenodd" d="M5.146 0h13.61c.325 0 .625.174.787.456l3.965 6.9a.91.91 0 0 1-.148 1.1L12.445 19.254a.907.907 0 0 1-1.276 0L.27 8.47a.91.91 0 0 1-.135-1.122L4.373.433A.907.907 0 0 1 5.146 0ZM17 3.08v1.937h-3.877v1.342c2.723.144 4.766.733 4.781 1.44V9.27c-.015.707-2.058 1.296-4.78 1.44v3.294h-2.575v-3.295c-2.723-.143-4.766-.732-4.781-1.439V7.798c.015-.706 2.058-1.295 4.78-1.439V5.017H6.672V3.081H17Zm-5.164 6.618c2.906 0 5.335-.498 5.929-1.164-.504-.564-2.327-1.008-4.642-1.13V8.81a24.518 24.518 0 0 1-2.574 0V7.404c-2.315.122-4.138.566-4.642 1.13.594.666 3.023 1.164 5.929 1.164Z" clip-rule="evenodd"/>
    <path d="m28.821 3.744 3.146-.354v3.056h2.731v2.658h-2.753v4.119c0 .974.408 1.461 1.224 1.461.524 0 .961-.088 1.31-.265l.722 2.657a7.267 7.267 0 0 1-2.272.487c-1.268.06-2.273-.243-3.016-.908-.728-.679-1.092-1.823-1.092-3.432v-4.12h-1.923V6.447h1.923V3.744Zm17.653 9.146h-7.93c.087.561.385 1.026.895 1.396.51.354 1.187.531 2.032.531 1.209 0 2.141-.288 2.797-.864l1.77 1.993c-1.078 1.078-2.622 1.617-4.632 1.617-1.923 0-3.416-.524-4.48-1.572-1.048-1.048-1.573-2.466-1.573-4.252 0-1.683.518-3.041 1.552-4.075 1.034-1.048 2.425-1.572 4.173-1.572 1.908 0 3.364.59 4.37 1.771 1.02 1.181 1.361 2.857 1.026 5.027Zm-7.93-2.325h5.112c-.03-.56-.291-.989-.787-1.284-.495-.31-1.092-.465-1.791-.465-.627 0-1.166.155-1.617.465-.451.31-.757.738-.918 1.284Zm10.552-6.821 3.147-.354v3.056h2.73v2.658h-2.752v4.119c0 .974.408 1.461 1.223 1.461.525 0 .962-.088 1.311-.265l.721 2.657c-.714.28-1.47.443-2.272.487-1.267.06-2.272-.243-3.015-.908-.729-.679-1.093-1.823-1.093-3.432v-4.12h-1.922V6.447h1.922V3.744Zm7.56-1.927h3.168V7.73c.772-1.019 1.864-1.528 3.278-1.528 2.869 0 4.304 1.75 4.304 5.249v5.868H64.26v-5.846c0-.753-.19-1.336-.569-1.75-.364-.413-.86-.62-1.486-.62-.684 0-1.26.236-1.725.709-.452.472-.678 1.13-.678 1.97v5.537h-3.146V1.817Zm23.09 11.073h-7.931c.087.561.386 1.026.895 1.396.51.354 1.188.531 2.033.531 1.208 0 2.14-.288 2.796-.864l1.77 1.993c-1.078 1.078-2.622 1.617-4.632 1.617-1.923 0-3.416-.524-4.48-1.572-1.048-1.048-1.572-2.466-1.572-4.252 0-1.683.517-3.041 1.551-4.075 1.034-1.048 2.425-1.572 4.173-1.572 1.908 0 3.365.59 4.37 1.771 1.02 1.181 1.362 2.857 1.027 5.027Zm-7.931-2.325h5.112c-.029-.56-.291-.989-.786-1.284-.496-.31-1.093-.465-1.792-.465-.626 0-1.165.155-1.617.465-.451.31-.757.738-.917 1.284Zm9.235-4.163h2.929l.24 1.195c.684-.974 1.646-1.461 2.884-1.461 1.02 0 1.9.332 2.643.996l-1.31 2.525a2.871 2.871 0 0 0-1.726-.554c-.714 0-1.311.229-1.792.687-.48.443-.72 1.055-.72 1.838v5.691H81.05V6.402Z"/>
</svg>
