<svg xmlns="http://www.w3.org/2000/svg" width="125" height="28" fill="currentColor" viewBox="0 0 125 28">
  <path fill-rule="evenodd" d="M7.16 0h18.936c.452 0 .87.242 1.095.634l5.516 9.6a1.266 1.266 0 0 1-.207 1.53L17.315 26.788a1.262 1.262 0 0 1-1.775 0L.375 11.785a1.266 1.266 0 0 1-.188-1.561L6.084.603A1.26 1.26 0 0 1 7.16 0Zm16.49 4.286V6.98h-5.394v1.868c3.788.2 6.63 1.02 6.652 2.002v2.048c-.021.982-2.864 1.802-6.652 2.002v4.583h-3.582V14.9c-3.788-.2-6.63-1.02-6.652-2.002V10.85c.021-.983 2.864-1.803 6.652-2.002V6.98H9.281V4.286h14.37Zm-7.185 9.207c4.043 0 7.422-.694 8.25-1.62-.702-.784-3.239-1.402-6.46-1.572v1.956a34.11 34.11 0 0 1-3.58 0V10.3c-3.221.17-5.758.788-6.46 1.573.828.925 4.207 1.619 8.25 1.619Z" clip-rule="evenodd"/>
  <path d="m40.1 5.21 4.377-.494v4.252h3.8v3.697h-3.83v5.731c0 1.356.567 2.034 1.702 2.034.73 0 1.337-.123 1.823-.37l1.004 3.697c-.993.39-2.047.617-3.162.678-1.763.082-3.161-.339-4.195-1.263-1.013-.945-1.52-2.537-1.52-4.776v-5.73h-2.675V8.967H40.1V5.21Zm24.56 12.724H53.626c.121.781.537 1.428 1.246 1.942.71.492 1.651.739 2.827.739 1.682 0 2.979-.4 3.89-1.202l2.463 2.773c-1.5 1.5-3.648 2.25-6.444 2.25-2.675 0-4.752-.73-6.232-2.188-1.459-1.458-2.189-3.43-2.189-5.916 0-2.341.72-4.231 2.159-5.669 1.439-1.458 3.374-2.187 5.806-2.187 2.654 0 4.68.821 6.08 2.464 1.418 1.644 1.894 3.975 1.428 6.995ZM53.626 14.7h7.113c-.04-.78-.406-1.376-1.095-1.787-.689-.431-1.52-.647-2.492-.647-.872 0-1.622.216-2.25.647-.628.432-1.054 1.027-1.276 1.787Zm14.683-9.49 4.377-.494v4.252h3.8v3.697h-3.83v5.731c0 1.356.567 2.034 1.702 2.034.73 0 1.337-.123 1.823-.37l1.004 3.697c-.993.39-2.047.617-3.162.678-1.762.082-3.161-.339-4.195-1.263-1.013-.945-1.52-2.537-1.52-4.776v-5.73h-2.674V8.967h2.675V5.21Zm10.518-2.68h4.407v8.226c1.075-1.418 2.594-2.126 4.56-2.126 3.992 0 5.988 2.434 5.988 7.302v8.165h-4.376v-8.134c0-1.048-.265-1.86-.791-2.434-.506-.575-1.196-.863-2.067-.863-.953 0-1.753.329-2.402.986-.628.657-.942 1.571-.942 2.742v7.703h-4.377V2.529Zm32.122 15.404H99.915c.122.781.537 1.428 1.246 1.942.709.492 1.652.739 2.828.739 1.681 0 2.978-.4 3.89-1.202l2.463 2.773c-1.5 1.5-3.648 2.25-6.445 2.25-2.675 0-4.752-.73-6.232-2.188-1.459-1.458-2.188-3.43-2.188-5.916 0-2.341.72-4.231 2.158-5.669 1.44-1.458 3.374-2.187 5.806-2.187 2.655 0 4.681.821 6.08 2.464 1.418 1.644 1.894 3.975 1.428 6.995ZM99.915 14.7h7.113c-.04-.78-.405-1.376-1.094-1.787-.689-.431-1.52-.647-2.493-.647-.872 0-1.621.216-2.249.647-.629.432-1.054 1.027-1.277 1.787Zm12.85-5.793h4.074l.334 1.664c.952-1.356 2.29-2.034 4.013-2.034 1.418 0 2.644.462 3.677 1.387l-1.823 3.512a3.994 3.994 0 0 0-2.401-.77c-.994 0-1.825.318-2.493.955-.669.616-1.003 1.469-1.003 2.557v7.919h-4.378V8.907Z"/>
</svg>
