<svg xmlns="http://www.w3.org/2000/svg" width="80" height="80" fill="none" viewBox="0 0 80 80">
  <path fill="#15803D" fill-opacity=".3" stroke="#15803D" stroke-linecap="round" stroke-linejoin="round" stroke-width=".7" d="M20.437 27.157v19.14l-4.763-2.748V24.401l4.763 2.756Zm14.304 8.251v19.148l-4.77-2.755V32.66l.518.295 4.252 2.452Zm21.443 37v5.474L8.518 50.356V44.89l47.666 27.518Z"/>
  <path fill="#15803D" fill-opacity=".3" stroke="#15803D" stroke-linecap="round" stroke-linejoin="round" stroke-width=".7" d="m71 65-14.816 7.408L8.518 44.889l7.155-3.578v2.238l4.763 2.748 4.66-2.334 4.874-2.43V51.8l4.77 2.756 4.66-2.326 4.873-2.437V60.06l4.763 2.755 4.66-2.333 5.08-2.54L71 65Zm0 .001v5.474l-14.815 7.407v-5.474L71 65.001Zm0-35.556v5.474l-7.148 3.578-4.763 2.378-2.904 1.452v-5.474L59.09 35.4l1.756-.882 5.074-2.533L71 29.446Z"/>
  <path fill="#15803D" fill-opacity=".3" stroke="#15803D" stroke-linecap="round" stroke-linejoin="round" stroke-width=".7" d="m71 29.445-5.082 2.541-5.074 2.533-1.755.882-2.904 1.452-1.148-1.319-5.481-6.311-.741-.852-1.386-1.592-9.518-10.963-5.556-6.393L47.17 2.016 71 29.446Z"/>
  <path fill="#15803D" fill-opacity=".3" stroke="#15803D" stroke-linecap="round" stroke-linejoin="round" stroke-width=".7" d="M47.17 2.016 32.355 9.423l-5.556-.022-18.281-.067 14.814-7.407 23.838.089Z"/>
  <path fill="#15803D" fill-opacity=".3" stroke="#15803D" stroke-linecap="round" stroke-linejoin="round" stroke-width=".7" d="M56.184 36.852v5.475l-2.074-1.2-4.555-2.63-.215-.119-4.556-2.63-4.977-2.873-4.556-2.63-.207-.126-4.556-2.63-4.978-2.874-4.77-2.748-12.222-7.059V9.334l18.281.067 5.556.022 5.555 6.393 9.519 10.962 1.385 1.593.74.852 5.482 6.311 1.148 1.319Z"/>
  <path fill="#15803D" fill-opacity=".3" stroke="#15803D" stroke-linecap="round" stroke-linejoin="round" stroke-width=".7" d="M63.852 38.497v16.911l-5.074 2.533-5.082 2.541-4.659 2.334V43.667l.519-.259 4.555-2.281 2.074 1.2 2.904-1.452 4.763-2.378Z"/>
  <path fill="#15803D" fill-opacity=".3" stroke="#15803D" stroke-linecap="round" stroke-linejoin="round" stroke-width=".7" d="m54.11 41.127-4.555 2.281-.519.26-4.251-2.46-.512-.296.512-.252 4.555-2.281.215.118 4.556 2.63Zm-14.303-8.252-4.555 2.281-.511.252-4.252-2.452-.518-.296.518-.26 4.556-2.28.207.125 4.555 2.63Z"/>
  <path fill="#15803D" fill-opacity=".3" stroke="#15803D" stroke-linecap="round" stroke-linejoin="round" stroke-width=".7" d="M44.787 35.75v4.91l-.512.252v8.882l-4.874 2.437-4.659 2.325V35.409l.511-.252 4.556-2.281 4.978 2.874Z"/>
  <path fill="#15803D" fill-opacity=".3" stroke="#15803D" stroke-linecap="round" stroke-linejoin="round" stroke-width=".7" d="M49.036 43.668v19.148l-4.763-2.756V40.912l.512.296 4.252 2.46ZM25.51 24.615l-5.073 2.541-4.763-2.755 5.066-2.534 4.77 2.748Zm4.98 2.875v4.91l-.519.26v8.874l-4.874 2.43-4.66 2.333V27.156l5.075-2.54 4.977 2.873Z"/>
</svg>
