<svg xmlns="http://www.w3.org/2000/svg" width="80" height="80" fill="none" viewBox="0 0 80 80">
  <path fill="#15803D" fill-opacity=".3" stroke="#15803D" stroke-linecap="round" stroke-linejoin="round" stroke-width=".7" d="m57.882 68.477-3.951 2.252-13.607 7.755-10.59-18.26 3.488-1.986 7.102 12.099 10.056-5.734 3.544-2.02.47-.267.421.743 3.067 5.418Z"/>
  <path fill="#15803D" fill-opacity=".3" stroke="#15803D" stroke-linecap="round" stroke-linejoin="round" stroke-width=".7" d="M71.915 61.46 54.357 71.467l-14.035 7.017L53.93 70.73l3.951-2.252 14.035-7.018Zm0 0L57.88 68.476l-3.066-5.418-.421-.744 14.035-7.017 3.487 6.161ZM33.627 50.723 22.701 56.17l7.58-4.323 3.003-1.712.343.59Z"/>
  <path fill="#15803D" fill-opacity=".3" stroke="#15803D" stroke-linecap="round" stroke-linejoin="round" stroke-width=".7" d="m34.21 51.733-2.218 1.109-8.73 4.365-.56-1.039 10.925-5.445.583 1.01Z"/>
  <path fill="#15803D" fill-opacity=".3" stroke="#15803D" stroke-linecap="round" stroke-linejoin="round" stroke-width=".7" d="M57.88 37.179v22.863l-4.982-2.877V45.733L23.663 28.856l-1.558-.898-9.052-5.228v11.43l9.052 5.228 15.776 9.11 6.884 3.971.147.084 4.73 2.73 1.453.842-.716.407-3.516 2.007-6.54 3.727-3.41-5.874-.134-.232-.484-.842-2.084-3.586-.583-1.01-.344-.59-3.003 1.712-7.58 4.323.562 1.039v5.712L8.07 54.147V8.421l14.035 8.105 4.983 2.877L57.88 37.18Z"/>
  <path fill="#15803D" fill-opacity=".3" stroke="#15803D" stroke-linecap="round" stroke-linejoin="round" stroke-width=".7" d="M52.898 45.734v9.494l-1.803.899-1.453-.843-4.73-2.73-.147-.084-6.884-3.971-15.776-9.11-9.052-5.227 9.052-4.527 1.558-.779 29.235 16.878ZM23.663 28.856l-1.558.779-9.052 4.526V22.73l9.052 5.228 1.558.898Zm48.253 1.305v22.863L57.88 60.042V37.179l14.035-7.018Z"/>
  <path fill="#15803D" fill-opacity=".3" stroke="#15803D" stroke-linecap="round" stroke-linejoin="round" stroke-width=".7" d="M71.916 30.161 57.88 37.18 27.088 19.403l-4.983-2.877L8.07 8.421l14.035-7.018 49.81 28.758Zm-35.136 26L23.264 62.92v-5.712l8.73-4.365 2.217-1.109 2.084 3.586.484.842Zm17.142 6.421-3.543 2.021-10.056 5.734-7.102-12.099 3.69-1.845 3.411 5.873 6.54-3.726 3.517-2.007 3.544 6.05Z"/>
  <path fill="#15803D" fill-opacity=".3" d="m51.094 56.126-.534.267Z"/>
  <path stroke="#15803D" stroke-linecap="round" stroke-linejoin="round" stroke-width=".7" d="m51.094 56.126-.534.267"/>
</svg>
