<svg xmlns="http://www.w3.org/2000/svg" width="80" height="80" fill="none" viewBox="0 0 80 80">
  <path fill="#15803D" fill-opacity=".3" stroke="#15803D" stroke-linecap="round" stroke-linejoin="round" stroke-width=".7" d="M55.104 65.996c-1.383-2.393-3.072-4.16-5.056-5.305-1.543-.896-2.919-1.178-4.128-.851-1.21.326-2.074 1.133-2.592 2.432l-12.314-7.11c-1.306-.756-2.426-1.94-3.36-3.546-.928-1.606-1.395-3.162-1.395-4.66 0-1.497.467-2.52 1.395-3.052.934-.531 2.054-.416 3.36.34l4.762 2.745c.595.345 1.17.62 1.728.832 1.85.697 3.481.665 4.902-.109.032-.02.058-.032.09-.051 1.862-1.063 2.796-3.098 2.796-6.1 0-1.004-.102-2.016-.313-3.046-.416-2.048-1.242-4.14-2.483-6.278a17.954 17.954 0 0 0-.416-.692c-1.773-2.867-3.879-4.998-6.304-6.4l-6.112-3.526-6.202-3.584c-.518-1.888-1.376-3.693-2.586-5.414-1.21-1.722-2.592-3.034-4.134-3.924-1.83-1.056-3.405-1.292-4.73-.69l-.326.16c-1.389.793-2.086 2.322-2.086 4.6 0 2.28.697 4.609 2.086 7.003 1.389 2.393 3.072 4.16 5.056 5.305 1.542.896 2.925 1.178 4.134.851.301-.083.583-.192.839-.332.78-.43 1.357-1.12 1.747-2.093l1.133.652 11.18 6.452c.5.288.967.64 1.409 1.05.723.665 1.376 1.503 1.952 2.495.672 1.152 1.1 2.279 1.28 3.38.076.435.115.864.115 1.286 0 1.478-.448 2.483-1.357 3.02a.134.134 0 0 1-.038.026c-.935.532-2.055.423-3.36-.333l-1.165-.672-3.597-2.08c-2.387-1.382-4.46-1.683-6.22-.921l-.5.25c-1.862 1.062-2.797 3.097-2.797 6.099 0 3.001.935 6.112 2.797 9.33 1.862 3.214 4.102 5.575 6.72 7.086l12.314 7.11c.48 1.869 1.33 3.667 2.56 5.401 1.228 1.735 2.617 3.047 4.16 3.943 1.984 1.14 3.673 1.318 5.056.525 1.388-.787 2.086-2.323 2.086-4.596 0-2.272-.698-4.614-2.086-7.008ZM18.438 19.808c-.46.262-1.024.198-1.696-.192-.678-.39-1.242-.98-1.696-1.76-.454-.787-.685-1.568-.685-2.343 0-.774.23-1.292.685-1.548.454-.263 1.018-.199 1.696.192.672.39 1.235.979 1.696 1.766.454.78.678 1.562.678 2.336 0 .774-.224 1.293-.678 1.549Z"/>
  <path fill="#15803D" fill-opacity=".3" stroke="#15803D" stroke-linecap="round" stroke-linejoin="round" stroke-width=".7" d="M69.99 66.604c0 2.272-.697 3.808-2.086 4.596l-12.8 6.4c1.389-.788 2.086-2.324 2.086-4.596 0-2.272-.697-4.614-2.086-7.008-1.383-2.393-3.072-4.16-5.056-5.305-1.543-.896-2.919-1.178-4.128-.851l4.07-2.048 5.056-2.547 2.458-1.235.02-.013c.351-.25.748-.435 1.196-.557 1.21-.326 2.586-.045 4.128.851 1.984 1.146 3.674 2.912 5.056 5.306 1.389 2.393 2.086 4.729 2.086 7.007Z"/>
  <path fill="#15803D" fill-opacity=".3" stroke="#15803D" stroke-linecap="round" stroke-linejoin="round" stroke-width=".7" d="m55.047 55.245-5.056 2.547-4.07 2.048c-1.21.326-2.074 1.133-2.592 2.432l-12.314-7.11c-1.306-.756-2.426-1.94-3.36-3.546-.928-1.606-1.395-3.162-1.395-4.66 0-1.497.467-2.52 1.395-3.052.934-.531 2.054-.416 3.36.34l4.762 2.745c.595.345 1.17.62 1.728.832 1.85.697 3.481.665 4.902-.109.442.41.909.762 1.408 1.05l11.232 6.483Zm-18.786-43.61-9.549 4.775-3.25 1.625c-.52-1.888-1.377-3.693-2.586-5.414-1.21-1.722-2.592-3.034-4.135-3.924-1.83-1.056-3.405-1.292-4.73-.69l12.474-6.24c1.39-.794 3.072-.615 5.056.53 1.543.89 2.925 2.202 4.135 3.924 1.21 1.721 2.067 3.526 2.585 5.414Zm4.269 27.181c0 1.478-.447 2.483-1.356 3.02a.134.134 0 0 1-.039.026c-.934.532-2.054.423-3.36-.333l-1.164-.672-3.597-2.08c-2.387-1.382-4.461-1.683-6.221-.921l12.3-6.15c.033-.02.058-.032.09-.052.724.666 1.376 1.504 1.952 2.496.672 1.152 1.101 2.279 1.28 3.38.077.435.116.864.116 1.286Z"/>
  <path fill="#15803D" fill-opacity=".3" d="m57.639 53.938-.116.058Z"/>
  <path stroke="#15803D" stroke-linecap="round" stroke-linejoin="round" stroke-width=".7" d="m57.639 53.938-.116.058"/>
  <path fill="#15803D" fill-opacity=".3" stroke="#15803D" stroke-linecap="round" stroke-linejoin="round" stroke-width=".7" d="M58.093 35.161c0 3.002-.934 5.037-2.797 6.1l-.499.249-12.3 6.15c1.862-1.062 2.796-3.097 2.796-6.099a15.11 15.11 0 0 0-.313-3.046c-.416-2.048-1.242-4.141-2.483-6.279a17.954 17.954 0 0 0-.416-.69c-1.773-2.868-3.879-5-6.305-6.4l-6.112-3.527-6.201-3.584 3.251-1.626 9.549-4.774 12.314 7.11c2.617 1.51 4.857 3.872 6.72 7.091 1.862 3.213 2.796 6.324 2.796 9.325Z"/>
  <path fill="#15803D" fill-opacity=".3" d="m21.58 25.664.135-.07 2.88-1.44"/>
  <path stroke="#15803D" stroke-linecap="round" stroke-linejoin="round" stroke-width=".7" d="m21.58 25.664.135-.07 2.88-1.44"/>
</svg>
